<?xml version="1.0" encoding="utf-8"?>
<!-- Generator: Adobe Illustrator 23.0.6, SVG Export Plug-In . SVG Version: 6.00 Build 0)  -->
<svg version="1.1" id="Layer_2" xmlns="http://www.w3.org/2000/svg" xmlns:xlink="http://www.w3.org/1999/xlink" x="0px" y="0px"
	 viewBox="0 0 274.8 274.8" style="enable-background:new 0 0 274.8 274.8;" xml:space="preserve">
<style type="text/css">
	.st0{fill:#333333;}
	.st1{fill:#0EBFE9;}
</style>
<g>
	<path class="st0" d="M172.7,76.7H61.5c-1.8,0-3.2-1.4-3.2-3.2V61.1c0-1.8,1.4-3.2,3.2-3.2h111.2c1.8,0,3.2,1.4,3.2,3.2v12.4
		C175.8,75.2,174.4,76.7,172.7,76.7z"/>
	<path class="st0" d="M165,168.6H61.5c-1.8,0-3.2-1.4-3.2-3.2v-12.4c0-1.8,1.4-3.2,3.2-3.2H165c1.8,0,3.2,1.4,3.2,3.2v12.4
		C168.1,167.2,166.7,168.6,165,168.6z"/>
	<path class="st0" d="M151.6,122.7H61.5c-1.8,0-3.2-1.4-3.2-3.2v-12.4c0-1.8,1.4-3.2,3.2-3.2h90.2c1.8,0,3.2,1.4,3.2,3.2v12.4
		C154.8,121.2,153.4,122.7,151.6,122.7z"/>
	<path class="st0" d="M102.5,217.2H61.5c-1.8,0-3.2-1.4-3.2-3.2v-12.4c0-1.8,1.4-3.2,3.2-3.2h41.1c1.8,0,3.2,1.4,3.2,3.2V214
		C105.7,215.8,104.3,217.2,102.5,217.2z"/>
</g>
<path id="color" class="st1" d="M272.9,184.2c-15.1,0-30.3,0-45.4,0c-1.1,0-1.4-0.2-1.4-1.4c0-15.1,0-30.3,0-45.4
	c0-1.2-0.4-1.4-1.4-1.4h-39.1c-1.1,0-1.4,0.2-1.4,1.4c0,15.1,0,30.3,0,45.4c0,1.1-0.2,1.4-1.4,1.4c-15.1,0-30.3,0-45.4,0
	c-1.2,0-1.4,0.4-1.4,1.4v39.1c0,1.1,0.2,1.4,1.4,1.4c15.1,0,30.3,0,45.4,0c1.1,0,1.4,0.2,1.4,1.4c0,15.1,0,30.3,0,45.4
	c0,1.2,0.4,1.4,1.4,1.4h39.1c1.1,0,1.4-0.2,1.4-1.4c0-15.1,0-30.3,0-45.4c0-1.1,0.2-1.4,1.4-1.4c15.1,0,30.3,0,45.4,0
	c1.2,0,1.4-0.4,1.4-1.4v-39.1C274.3,184.6,274.1,184.2,272.9,184.2z"/>
<path class="st0" d="M273.3,54.6L214.6,0.8C214,0.3,213.2,0,212.5,0H16.2C7.5,0,0.5,7,0.5,15.7v243.5c0,8.7,7,15.7,15.7,15.7h147.5
	c0.5,0,0.8-0.4,0.8-0.8v-26.2c0-1.7,0-1.7-1.8-1.7H30.9c-1.8,0-1.6,0.1-1.6-1.6c0-71.3,0-142.5,0-213.8c0-1.8-0.2-1.7,1.7-1.7
	c31.9,0,63.9,0,95.8,0c25.4,0,50.7,0,76.1,0c0.8,0,1.4,0.1,2.1,0.7l40.1,36.7c0.8,0.7,1.1,1.4,1.1,2.4v94.1c0,0.9,0.7,1.6,1.6,1.6
	h25c1.6,0,1.6,0,1.6-1.7v-106C274.3,56,273.9,55.2,273.3,54.6z"/>
</svg>
