<?xml version="1.0" encoding="utf-8"?>
<!-- Generator: Adobe Illustrator 23.0.6, SVG Export Plug-In . SVG Version: 6.00 Build 0)  -->
<svg version="1.1" xmlns="http://www.w3.org/2000/svg" xmlns:xlink="http://www.w3.org/1999/xlink" x="0px" y="0px"
	 viewBox="0 0 274.8 274.8" style="enable-background:new 0 0 274.8 274.8;" xml:space="preserve">
<style type="text/css">
	.st0{fill:#333333;}
	.st1{fill:#0EBFE9;}
</style>
<g id="Layer_7">
	<path class="st0" d="M197.3,274.8H77.5l-4.1-3.5c-24-20.7-41.6-40.7-53.8-61.2C3,182-3,153.3,1.6,124.7c4.1-25.8,16.3-45.7,28-64.9
		c1.6-2.6,3.2-5.2,4.8-7.9c0.8-1.3,1.2-2.1,1.5-2.7c-0.3-0.3-0.7-0.7-1-1c-2.8-2.8-7.1-7-9-14c-3-10.8,0.8-22.5,9.5-29.1
		c4.5-3.4,10-5.2,15.6-5.1l86.5,0l86.5,0c5.7-0.1,11.2,1.7,15.6,5.1c8.7,6.6,12.5,18.3,9.5,29.1c-1.9,7-6.2,11.2-9,14
		c-0.3,0.3-0.7,0.7-1,1c0.3,0.6,0.7,1.4,1.5,2.7c1.6,2.7,3.2,5.3,4.8,7.9c11.7,19.2,23.8,39.1,28,64.9c4.6,28.6-1.5,57.4-18,85.3
		c-12.1,20.5-29.7,40.6-53.8,61.2L197.3,274.8z M88.4,245.5h97.9c45.1-40,64-78,57.9-116.2v0c-3.2-20.1-12.9-36-24-54.3
		c-1.6-2.7-3.3-5.4-4.9-8.1c-2.9-4.8-9.6-16.1-3.6-29.3c1.6-3.6,3.8-6.2,5.7-8.3l-80,0l-80,0c2,2.1,4.1,4.7,5.7,8.3
		c6,13.2-0.8,24.5-3.6,29.3c-1.6,2.7-3.3,5.4-4.9,8.1c-11.2,18.3-20.8,34.2-24,54.3C24.4,167.5,43.4,205.5,88.4,245.5z M221.1,25.5
		L221.1,25.5L221.1,25.5z"/>
</g>
<g id="color">
	<path class="st1" d="M195.3,138.1l-0.9-16.7c0-0.5-0.2-0.9-0.6-1.3l-0.1-0.1c-0.4-0.4-1-0.7-1.6-0.7l-34.9-0.5
		c-0.6,0-1.2-0.3-1.6-0.7l0,0c-0.4-0.4-0.6-0.9-0.6-1.4L154.7,79c0-0.5-0.2-1-0.6-1.4l0-0.1c-0.4-0.4-0.9-0.6-1.5-0.7l-15.1-0.7v0
		l-15.1,0.7c-0.6,0-1.1,0.3-1.5,0.7l-0.1,0.1c-0.4,0.4-0.6,0.9-0.6,1.4l-0.7,37.7c0,0.5-0.2,1-0.6,1.4l0,0c-0.4,0.4-1,0.7-1.6,0.7
		l-34.9,0.5c-0.6,0-1.2,0.3-1.6,0.7l-0.1,0.1c-0.3,0.4-0.5,0.8-0.6,1.3l-0.9,16.7h0l4,15.9c0.2,0.9,1,1.5,1.9,1.6l30.4,2.7
		c0.5,0,1,0.3,1.4,0.7l0.2,0.2c0.3,0.4,0.5,0.8,0.6,1.3l2.3,32.8c0.1,0.9,0.7,1.7,1.7,1.9l15.3,3.4v0l15.3-3.4
		c0.9-0.2,1.6-1,1.7-1.9l2.5-32.8c0-0.5,0.2-0.9,0.6-1.3l0.2-0.2c0.4-0.4,0.9-0.6,1.4-0.7l30.5-2.7c0.9-0.1,1.7-0.7,1.9-1.6
		L195.3,138.1L195.3,138.1L195.3,138.1z"/>
</g>
</svg>
