<?xml version="1.0" encoding="utf-8"?>
<!-- Generator: Adobe Illustrator 23.0.6, SVG Export Plug-In . SVG Version: 6.00 Build 0)  -->
<svg version="1.1" id="Layer_0_xA0_Image_1_" xmlns="http://www.w3.org/2000/svg" xmlns:xlink="http://www.w3.org/1999/xlink"
	 x="0px" y="0px" viewBox="0 0 274.8 274.8" style="enable-background:new 0 0 274.8 274.8;" xml:space="preserve">
<style type="text/css">
	.st0{fill:#333333;}
</style>
<g id="color">
	<rect x="48.2" y="129.3" class="st0" width="48.6" height="16.2"/>
	<rect x="178" y="129.3" class="st0" width="48.6" height="16.2"/>
</g>
<g>
	<path class="st0" d="M0,176.3c0,2.3,0.5,3,2.9,3c30-0.1,60,0,90-0.1c2.2,0,2.8,0.6,2.8,2.8c-0.1,30,0,60-0.1,90
		c0,2.4,0.7,2.9,3,2.9c13,0,25.9-0.1,38.9-0.1c13,0,25.9,0,38.9,0.1c2.3,0,3-0.5,3-2.9c-0.1-30,0-60-0.1-90c0-2.2,0.6-2.8,2.8-2.8
		c30,0.1,60,0,90,0.1c2.4,0,2.9-0.7,2.9-3c0-3.9,0-7.8,0-11.7H0C0,168.5,0,172.4,0,176.3z"/>
	<path class="st0" d="M274.8,111.8c0-4.4,0-8.8,0-13.3c0-2.3-0.5-3-2.9-3c-30,0.1-60,0-90,0.1c-2.2,0-2.8-0.6-2.8-2.8
		c0.1-30,0-60,0.1-90c0-2.4-0.7-2.9-3-2.9c-13,0-25.9,0.1-38.9,0.1c-13,0-25.9,0-38.9-0.1c-2.3,0-3,0.5-3,2.9c0.1,30,0,60,0.1,90
		c0,2.2-0.6,2.8-2.8,2.8c-30-0.1-60,0-90-0.1c-2.4,0-2.9,0.7-2.9,3c0,4.4,0,8.8,0,13.3H274.8z"/>
</g>
</svg>
