<?xml version="1.0" encoding="utf-8"?>
<!-- Generator: Adobe Illustrator 19.2.1, SVG Export Plug-In . SVG Version: 6.00 Build 0)  -->
<svg version="1.1" id="Layer_0_xA0_Image_1_" xmlns="http://www.w3.org/2000/svg" xmlns:xlink="http://www.w3.org/1999/xlink"
	 x="0px" y="0px" viewBox="0 0 274.8 274.8" style="enable-background:new 0 0 274.8 274.8;" xml:space="preserve">
<style type="text/css">
	.st0{fill:#424242;}
</style>
<g>
	<rect x="64.2" y="130.8" class="st0" width="39.9" height="13.3"/>
	<rect x="170.7" y="130.8" class="st0" width="39.9" height="13.3"/>
</g>
<g>
	<path class="st0" d="M24.7,169.3c0,1.9,0.4,2.4,2.4,2.4c24.6-0.1,49.2,0,73.8-0.1c1.8,0,2.3,0.5,2.3,2.3c-0.1,24.6,0,49.2-0.1,73.8
		c0,1.9,0.6,2.4,2.4,2.4c10.6,0,21.2,0,31.9,0c10.6,0,21.2,0,31.9,0c1.9,0,2.4-0.4,2.4-2.4c-0.1-24.6,0-49.2-0.1-73.8
		c0-1.8,0.5-2.3,2.3-2.3c24.6,0.1,49.2,0,73.8,0.1c1.9,0,2.4-0.6,2.4-2.4c0-3.2,0-6.4,0-9.6H24.7C24.7,162.9,24.7,166.1,24.7,169.3z
		"/>
	<path class="st0" d="M250.1,116.4c0-3.6,0-7.3,0-10.9c0-1.9-0.4-2.4-2.4-2.4c-24.6,0.1-49.2,0-73.8,0.1c-1.8,0-2.3-0.5-2.3-2.3
		c0.1-24.6,0-49.2,0.1-73.8c0-1.9-0.6-2.4-2.4-2.4c-10.6,0-21.2,0-31.9,0c-10.6,0-21.2,0-31.9,0c-1.9,0-2.4,0.4-2.4,2.4
		c0.1,24.6,0,49.2,0.1,73.8c0,1.8-0.5,2.3-2.3,2.3c-24.6-0.1-49.2,0-73.8-0.1c-1.9,0-2.4,0.6-2.4,2.4c0,3.6,0,7.3,0,10.9H250.1z"/>
</g>
</svg>
