<?xml version="1.0" encoding="utf-8"?>
<!-- Generator: Adobe Illustrator 19.2.1, SVG Export Plug-In . SVG Version: 6.00 Build 0)  -->
<svg version="1.1" id="Layer_0_xA0_Image_1_" xmlns="http://www.w3.org/2000/svg" xmlns:xlink="http://www.w3.org/1999/xlink"
	 x="0px" y="0px" viewBox="0 0 274.8 274.8" style="enable-background:new 0 0 274.8 274.8;" xml:space="preserve">
<style type="text/css">
	.st0{fill:#00CD98;}
</style>
<g>
	<path class="st0" d="M39.5,81.7l32,32c13.6,0,27.1,0,40.7,0c1.3,0,1.6-0.3,1.6-1.6c0-13.1,0-26.2,0-39.4L80.8,40
		C63.6,50,49.3,64.4,39.5,81.7z"/>
	<path class="st0" d="M194,40l-32.9,32.9c0,13.1,0,26.2,0,39.4c0,1.2,0.3,1.6,1.6,1.6c13.6,0,27.1,0,40.7,0l32-32
		C225.5,64.4,211.2,50,194,40z"/>
	<path class="st0" d="M215.3,124.1c0,4.4,0,8.9,0,13.3c0,7.3,0,14.7,0,22c0,1.3-0.3,1.7-1.6,1.7c-17,0-34,0-51-0.1
		c-1.3,0-1.6,0.3-1.6,1.6c0,17,0,34,0.1,51c0,1.3-0.4,1.6-1.7,1.6c-7.3,0-14.7,0-22,0c-7.3,0-14.7,0-22,0c-1.3,0-1.7-0.3-1.7-1.6
		c0-17,0-34,0.1-51c0-1.2-0.3-1.6-1.6-1.6c-17,0-34,0-51,0.1c-1.3,0-1.6-0.4-1.6-1.7c0-7.3,0-14.7,0-22c0-4.4,0-8.9,0-13.3
		L32.3,96.8c-4.9,12.6-7.5,26.3-7.5,40.6c0,62.2,50.4,112.7,112.7,112.7s112.7-50.4,112.7-112.7c0-14.3-2.7-28-7.5-40.6L215.3,124.1
		z"/>
	<path class="st0" d="M122.7,59.5c4.9,0,9.8,0,14.7,0c4.9,0,9.8,0,14.7,0L179,32.7c-12.9-5.1-26.9-7.9-41.6-7.9s-28.7,2.8-41.6,7.9
		L122.7,59.5z"/>
</g>
</svg>
