<?xml version="1.0" encoding="utf-8"?>
<!-- Generator: Adobe Illustrator 23.0.0, SVG Export Plug-In . SVG Version: 6.00 Build 0)  -->
<svg version="1.1" id="Layer_0_xA0_Image_1_" xmlns="http://www.w3.org/2000/svg" xmlns:xlink="http://www.w3.org/1999/xlink"
	 x="0px" y="0px" viewBox="0 0 274.801 274.801" style="enable-background:new 0 0 274.801 274.801;" xml:space="preserve">
<style type="text/css">
	.st0{fill:#00CD98;}
</style>
<g>
	<path class="st0" d="M39.467,81.679l32.028,32.028c13.565,0.017,27.129,0.012,40.694,0.047c1.25,0.003,1.569-0.316,1.566-1.566
		c-0.033-13.117-0.031-26.234-0.045-39.35L80.83,39.958C63.633,49.963,49.327,64.388,39.467,81.679z"/>
	<path class="st0" d="M193.971,39.958l-32.879,32.879c-0.015,13.117-0.012,26.234-0.045,39.35c-0.003,1.25,0.315,1.569,1.566,1.566
		c13.565-0.035,27.129-0.03,40.694-0.047l32.028-32.028C225.474,64.388,211.168,49.963,193.971,39.958z"/>
	<path class="st0" d="M215.261,124.065c-0.008,4.445-0.019,8.89-0.02,13.335c0,7.34,0.011,14.68,0.032,22.02
		c0.004,1.287-0.306,1.689-1.646,1.686c-17.005-0.045-34.01-0.016-51.015-0.059c-1.25-0.003-1.569,0.316-1.566,1.566
		c0.043,17.005,0.014,34.01,0.059,51.015c0.004,1.34-0.399,1.65-1.686,1.646c-7.34-0.021-14.679-0.031-22.019-0.031
		c-7.34,0-14.679,0.01-22.019,0.031c-1.287,0.004-1.689-0.305-1.686-1.646c0.045-17.005,0.016-34.01,0.059-51.015
		c0.003-1.25-0.315-1.569-1.566-1.566c-17.005,0.043-34.01,0.014-51.015,0.059c-1.34,0.004-1.65-0.399-1.646-1.686
		c0.021-7.34,0.032-14.68,0.032-22.02c0-4.445-0.012-8.89-0.02-13.335L32.282,96.807c-4.867,12.595-7.542,26.281-7.542,40.593
		c0,62.221,50.44,112.66,112.66,112.66s112.66-50.44,112.66-112.66c0-14.312-2.675-27.998-7.542-40.593L215.261,124.065z"/>
	<path class="st0" d="M122.722,59.537c4.893,0.009,9.785,0.021,14.678,0.021c4.893,0,9.785-0.012,14.678-0.021l26.881-26.881
		C166.1,27.55,152.079,24.74,137.4,24.74s-28.699,2.81-41.559,7.916L122.722,59.537z"/>
</g>
</svg>
