<?xml version="1.0" encoding="utf-8"?>
<!-- Generator: Adobe Illustrator 23.0.6, SVG Export Plug-In . SVG Version: 6.00 Build 0)  -->
<svg version="1.1" id="Layer_0_xA0_Image_1_" xmlns="http://www.w3.org/2000/svg" xmlns:xlink="http://www.w3.org/1999/xlink"
	 x="0px" y="0px" viewBox="0 0 274.8 274.8" style="enable-background:new 0 0 274.8 274.8;" xml:space="preserve">
<style type="text/css">
	.st0{fill:#333333;}
	.st1{fill:#0EBFE9;}
</style>
<path class="st0" d="M232.4,121.1c0,5.4,0,10.8,0,16.3c0,9,0,17.9,0,26.9c0,1.6-0.4,2.1-2,2.1c-20.7-0.1-41.5,0-62.2-0.1
	c-1.5,0-1.9,0.4-1.9,1.9c0.1,20.7,0,41.5,0.1,62.2c0,1.6-0.5,2-2.1,2c-9,0-17.9,0-26.9,0c-9,0-17.9,0-26.9,0c-1.6,0-2.1-0.4-2.1-2
	c0.1-20.7,0-41.5,0.1-62.2c0-1.5-0.4-1.9-1.9-1.9c-20.7,0.1-41.5,0-62.2,0.1c-1.6,0-2-0.5-2-2.1c0-9,0-17.9,0-26.9
	c0-5.4,0-10.8,0-16.3L9.2,87.9C3.3,103.3,0,119.9,0,137.4c0,75.9,61.5,137.4,137.4,137.4s137.4-61.5,137.4-137.4
	c0-17.5-3.3-34.1-9.2-49.5L232.4,121.1z"/>
<g id="color">
	<path class="st1" d="M18,69.4L57,108.5c16.5,0,33.1,0,49.6,0.1c1.5,0,1.9-0.4,1.9-1.9c0-16,0-32-0.1-48L68.4,18.6
		C47.4,30.8,30,48.4,18,69.4z"/>
	<path class="st1" d="M206.4,18.6l-40.1,40.1c0,16,0,32-0.1,48c0,1.5,0.4,1.9,1.9,1.9c16.5,0,33.1,0,49.6-0.1l39.1-39.1
		C244.8,48.4,227.4,30.8,206.4,18.6z"/>
	<path class="st1" d="M119.5,42.4c6,0,11.9,0,17.9,0c6,0,11.9,0,17.9,0l32.8-32.8C172.4,3.4,155.3,0,137.4,0s-35,3.4-50.7,9.7
		L119.5,42.4z"/>
</g>
</svg>
