<?xml version="1.0" encoding="utf-8"?>
<!-- Generator: Adobe Illustrator 24.0.1, SVG Export Plug-In . SVG Version: 6.00 Build 0)  -->
<svg version="1.1" xmlns="http://www.w3.org/2000/svg" xmlns:xlink="http://www.w3.org/1999/xlink" x="0px" y="0px"
	 viewBox="0 0 274.8 274.8" style="enable-background:new 0 0 274.8 274.8;" xml:space="preserve">
<style type="text/css">
	.st0{fill:#333333;}
	.st1{fill:#0EBFE9;}
</style>
<g id="Layer">
	<path class="st0" d="M272.6,154.3c-20.1,0-40.5,0-60.6,0c-1.5,0-1.9-0.3-1.9-1.9c0-20.1,0-40.5,0-60.6c0-1.6-0.5-1.9-1.9-1.9h-2
		h-9.2h-29.4h-6.8h-4.8c-1.5,0-1.9,0.3-1.9,1.9c0,16.5,0,33.1,0,49.6c0,3.7,0,7.3,0,11c0,1.5-0.3,1.9-1.9,1.9c-3.6,0-7.2,0-10.8,0
		c-16.6,0-33.2,0-49.8,0c-1.6,0-1.9,0.5-1.9,1.9v2.3v9.8v28.8v9.8v1.4c0,1.5,0.3,1.9,1.9,1.9c20.1,0,40.5,0,60.6,0
		c1.5,0,1.9,0.3,1.9,1.9c0,20.1,0,40.5,0,60.6c0,1.6,0.5,1.9,1.9,1.9h52.2c1.5,0,1.9-0.3,1.9-1.9c0-20.1,0-40.5,0-60.6
		c0-1.5,0.3-1.9,1.9-1.9c20.1,0,40.5,0,60.6,0c1.6,0,1.9-0.5,1.9-1.9v-52.2C274.6,154.7,274.2,154.3,272.6,154.3z"/>
</g>
<g id="color_1_">
	<path class="st1" d="M195.2,78.2c-9.5-44.5-49.1-78-96.5-78C44.2,0.3,0,44.4,0,99c0,43.8,28.5,80.9,68,93.8
		c6.9,2.3,14.1,3.8,21.6,4.5v-28.8c-7.7-1-14.9-3.3-21.6-6.6C45,150.3,29.2,126.5,29.2,99c0-38.7,31.1-70,69.5-70
		c31.2,0,57.6,20.7,66.4,49.3c1.1,3.7,2,7.6,2.5,11.6h29.4C196.6,85.9,196,82,195.2,78.2z"/>
</g>
</svg>
