<?xml version="1.0" encoding="utf-8"?>
<!-- Generator: Adobe Illustrator 21.0.2, SVG Export Plug-In . SVG Version: 6.00 Build 0)  -->
<svg version="1.1" id="Layer_2" xmlns="http://www.w3.org/2000/svg" xmlns:xlink="http://www.w3.org/1999/xlink" x="0px" y="0px"
	 viewBox="0 0 274.8 274.8" style="enable-background:new 0 0 274.8 274.8;" xml:space="preserve">
<style type="text/css">
	.st0{fill:#0EBFE9;}
	.st1{fill:#424242;}
</style>
<path class="st0" d="M249.7,177c0-0.9-0.2-1.2-1.2-1.2h-37.2c-0.9,0-1.2-0.2-1.2-1.2v-37.2c0-1-0.3-1.2-1.2-1.2h-16h-16
	c-0.9,0-1.2,0.2-1.2,1.2v37.2c0,0.9-0.2,1.2-1.2,1.2h-37.2c-1,0-1.2,0.3-1.2,1.2v16v16c0,0.9,0.2,1.2,1.2,1.2h37.2
	c0.9,0,1.2,0.2,1.2,1.2v37.2c0,1,0.3,1.2,1.2,1.2h16h16c0.9,0,1.2-0.2,1.2-1.2v-37.2c0-0.9,0.2-1.2,1.2-1.2h37.2
	c1,0,1.2-0.3,1.2-1.2v-16V177z"/>
<path class="st1" d="M249.7,112.1V78.4v-7.5c0-0.5-0.1-0.9-0.6-1.3c-1.1-0.9-2.1-1.9-3.1-2.8c-4-3.6-7.8-7.2-11.8-10.8
	c-5.6-5.2-11.3-10.3-16.9-15.4c-4.1-3.7-8.1-7.3-12.1-11c-1.8-1.6-3.7-3.1-5.2-5H35.5c-0.9,0.1-1.3,0.2-1.9,0.5
	c-2.6,1-4.6,2.7-6.1,5c-1.3,1.9-2.2,3.9-2.4,6v201.6c0.2,0.4,0,0.8,0.2,1.2c0.1,0.3,0.1,0.5,0.2,0.8c0.5,2.3,1.3,4.4,2.9,6
	c2.7,3.1,6.3,4.3,10.3,4.3h57.7h2.7h0.3h58.8h0.8c0.5,0,0.6-0.2,0.6-0.7v-21.5c0-1.4,0-1.4-1.5-1.4H99.5H50.1
	c-1.5,0-1.3,0.1-1.3-1.3V49.9c0-1.5-0.2-1.4,1.4-1.4h78.5h62.4c0.7,0,1.2,0.1,1.7,0.6c1.6,1.5,3.3,3,4.9,4.5
	c5.9,5.3,11.8,10.8,17.7,16.1c3.5,3.2,6.8,6.3,10.3,9.5c0.7,0.6,0.9,1.2,0.9,2v30.9v46.3c0,1.3,0,1.3,1.3,1.3h20.5
	c1.3,0,1.3,0,1.3-1.4C249.7,142.9,249.7,127.5,249.7,112.1"/>
<path class="st1" d="M165.9,87.7H75.8c-1.8,0-3.2-1.4-3.2-3.2v-9c0-1.8,1.4-3.2,3.2-3.2h90.1c1.8,0,3.2,1.4,3.2,3.2v9
	C169,86.2,167.6,87.7,165.9,87.7z"/>
<path class="st1" d="M159.5,163.1H75.8c-1.8,0-3.2-1.4-3.2-3.2v-9c0-1.8,1.4-3.2,3.2-3.2h83.8c1.8,0,3.2,1.4,3.2,3.2v9
	C162.7,161.7,161.3,163.1,159.5,163.1z"/>
<path class="st1" d="M148.6,125.4H75.8c-1.8,0-3.2-1.4-3.2-3.2v-9c0-1.8,1.4-3.2,3.2-3.2h72.9c1.8,0,3.2,1.4,3.2,3.2v9
	C151.8,124,150.4,125.4,148.6,125.4z"/>
<path class="st1" d="M108.3,203H75.8c-1.8,0-3.2-1.4-3.2-3.2v-9c0-1.8,1.4-3.2,3.2-3.2h32.6c1.8,0,3.2,1.4,3.2,3.2v9
	C111.5,201.5,110.1,203,108.3,203z"/>
</svg>
