<?xml version="1.0" encoding="utf-8"?>
<!-- Generator: Adobe Illustrator 26.2.1, SVG Export Plug-In . SVG Version: 6.00 Build 0)  -->
<svg version="1.1" xmlns="http://www.w3.org/2000/svg" xmlns:xlink="http://www.w3.org/1999/xlink" x="0px" y="0px"
	 viewBox="0 0 274.8 274.8" style="enable-background:new 0 0 274.8 274.8;" xml:space="preserve">
<style type="text/css">
	.st0{fill:#333333;}
	.st1{fill:#0EBFE9;}
</style>
<path class="st0" d="M60.1,230.3l-12.8,12.8c-0.8,0.8-2,0.8-2.8,0l-12.8-12.8c-0.8-0.8-0.8-2,0-2.8l12.8-12.8c0.8-0.8,2-0.8,2.8,0
	l12.8,12.8C60.9,228.3,60.9,229.5,60.1,230.3z"/>
<path class="st0" d="M207.6,117.6c0-1.2-0.3-1.5-1.5-1.5c-15.3,0-30.7,0-46,0.1c-1.1,0-1.4-0.3-1.4-1.4c0-15.3,0-30.7,0.1-46
	c0-1.2-0.4-1.5-1.5-1.5c-6.6,0-13.2,0-19.9,0c-6.6,0-13.2,0-19.9,0c-1.2,0-1.5,0.3-1.5,1.5c0,15.3,0,30.7,0.1,46
	c0,1.1-0.3,1.4-1.4,1.4c-15.3,0-30.7,0-46-0.1c-1.2,0-1.5,0.4-1.5,1.5c0,6.6,0,13.2,0,19.9c0,6.6,0,13.2,0,19.9
	c0,1.2,0.3,1.5,1.5,1.5c15.3,0,30.7,0,46-0.1c1.1,0,1.4,0.3,1.4,1.4c0,15.3,0,30.7-0.1,46c0,1.2,0.4,1.5,1.5,1.5
	c6.6,0,13.2,0,19.9,0c6.6,0,13.2,0,19.9,0c1.2,0,1.5-0.3,1.5-1.5c0-15.3,0-30.7-0.1-46c0-1.1,0.3-1.4,1.4-1.4c15.3,0,30.7,0,46,0.1
	c1.2,0,1.5-0.4,1.5-1.5c0-6.6,0-13.2,0-19.9C207.6,130.8,207.6,124.2,207.6,117.6z"/>
<path class="st0" d="M199.1,183.5l12.8,12.8c0.8,0.8,0.8,2,0,2.8l-12.8,12.8c-0.8,0.8-2,0.8-2.8,0l-12.8-12.8c-0.8-0.8-0.8-2,0-2.8
	l12.8-12.8C197.1,182.8,198.3,182.8,199.1,183.5z"/>
<path class="st0" d="M261.5,245.9l12.8,12.8c0.8,0.8,0.8,2,0,2.8l-12.8,12.8c-0.8,0.8-2,0.8-2.8,0l-12.8-12.8c-0.8-0.8-0.8-2,0-2.8
	l12.8-12.8C259.4,245.1,260.7,245.1,261.5,245.9z"/>
<path class="st0" d="M16.1,0.6l12.8,12.8c0.8,0.8,0.8,2,0,2.8L16.1,28.9c-0.8,0.8-2,0.8-2.8,0L0.6,16.2c-0.8-0.8-0.8-2,0-2.8
	L13.3,0.6C14.1-0.2,15.4-0.2,16.1,0.6z"/>
<path class="st0" d="M78.5,62.9l12.8,12.8c0.8,0.8,0.8,2,0,2.8L78.5,91.3c-0.8,0.8-2,0.8-2.8,0L62.9,78.5c-0.8-0.8-0.8-2,0-2.8
	l12.8-12.8C76.4,62.2,77.7,62.2,78.5,62.9z"/>
<g id="color">
	<path class="st1" d="M272.8,0h-18h-50.9c-1.1,0-2,0.9-2,2v18c0,1.1,0.9,2,2,2h33.3l-53.7,53.7c-0.8,0.8-0.8,2,0,2.8l12.8,12.8
		c0.8,0.8,2,0.8,2.8,0l53.7-53.7V71c0,1.1,0.9,2,2,2h18c1.1,0,2-0.9,2-2V20V2C274.8,0.9,273.9,0,272.8,0z"/>
	<path class="st1" d="M230.3,214.7l12.8,12.8c0.8,0.8,0.8,2,0,2.8l-12.8,12.8c-0.8,0.8-2,0.8-2.8,0l-12.8-12.8c-0.8-0.8-0.8-2,0-2.8
		l12.8-12.8C228.2,213.9,229.5,213.9,230.3,214.7z"/>
	<path class="st1" d="M47.3,31.8l12.8,12.8c0.8,0.8,0.8,2,0,2.8L47.3,60.1c-0.8,0.8-2,0.8-2.8,0L31.7,47.3c-0.8-0.8-0.8-2,0-2.8
		l12.8-12.8C45.3,31,46.5,31,47.3,31.8z"/>
	<path class="st1" d="M28.9,261.5l-12.8,12.8c-0.8,0.8-2,0.8-2.8,0L0.6,261.5c-0.8-0.8-0.8-2,0-2.8l12.8-12.8c0.8-0.8,2-0.8,2.8,0
		l12.8,12.8C29.7,259.4,29.7,260.7,28.9,261.5z"/>
	<path class="st1" d="M91.3,199.1l-12.8,12.8c-0.8,0.8-2,0.8-2.8,0l-12.8-12.8c-0.8-0.8-0.8-2,0-2.8l12.8-12.8c0.8-0.8,2-0.8,2.8,0
		l12.8,12.8C92,197.1,92,198.4,91.3,199.1z"/>
</g>
</svg>
