<?xml version="1.0" encoding="utf-8"?>
<!-- Generator: Adobe Illustrator 23.0.6, SVG Export Plug-In . SVG Version: 6.00 Build 0)  -->
<svg version="1.1" id="Layer_1" xmlns="http://www.w3.org/2000/svg" xmlns:xlink="http://www.w3.org/1999/xlink" x="0px" y="0px"
	 viewBox="0 0 274.8 274.8" style="enable-background:new 0 0 274.8 274.8;" xml:space="preserve">
<style type="text/css">
	.st0{fill:#0EBFE9;}
	.st1{fill:#333333;}
</style>
<path id="color" class="st0" d="M243.3,219.4l-118-118h6.6h31.2c1.1,0,1.3-0.2,1.3-1.2V68.7c0-0.8-0.2-1.2-1.3-1.2H68.9
	c-0.5,0-0.7,0-1,0.2c-0.2,0.2-0.2,0.5-0.2,1v0.1v94.3c0,1.1,0.2,1.3,1.2,1.3h31.4c0.8,0,1.2-0.2,1.2-1.3v-24.1v-13.8l118,118
	c1.7,1.7,2.2,1.8,2.9,1.2l22.2-22.2C245.1,221.7,245,221.1,243.3,219.4z"/>
<path class="st1" d="M273.3,54.6L214.6,0.8C214,0.3,213.2,0,212.5,0H16.2C7.5,0,0.5,7,0.5,15.7v243.5c0,8.7,7,15.7,15.7,15.7h147.5
	c0.5,0,0.8-0.4,0.8-0.8v-26.2c0-1.7,0-1.7-1.8-1.7H30.9c-1.8,0-1.6,0.1-1.6-1.6c0-71.3,0-142.5,0-213.8c0-1.8-0.2-1.7,1.7-1.7
	c31.9,0,63.9,0,95.8,0c25.4,0,50.7,0,76.1,0c0.8,0,1.4,0.1,2.1,0.7l40.1,36.7c0.8,0.7,1.1,1.4,1.1,2.4v94.1c0,0.9,0.7,1.6,1.6,1.6
	h25c1.6,0,1.6,0,1.6-1.7v-106C274.3,56,273.9,55.2,273.3,54.6z"/>
</svg>
