<?xml version="1.0" encoding="utf-8"?>
<!-- Generator: Adobe Illustrator 22.0.0, SVG Export Plug-In . SVG Version: 6.00 Build 0)  -->
<svg version="1.1" id="Layer_2" xmlns="http://www.w3.org/2000/svg" xmlns:xlink="http://www.w3.org/1999/xlink" x="0px" y="0px"
	 viewBox="0 0 274.8 274.8" style="enable-background:new 0 0 274.8 274.8;" xml:space="preserve">
<style type="text/css">
	.st0{fill:#424242;}
	.st1{fill:#00CD98;}
</style>
<path class="st0" d="M249.1,69.6c-1.1-0.9-2.1-1.9-3.1-2.8c-4-3.6-7.8-7.2-11.8-10.8c-5.6-5.2-11.3-10.3-16.9-15.4
	c-4.1-3.7-8.1-7.3-12.1-11c-1.8-1.6-3.7-3.1-5.2-5H35.5c-0.9,0.1-1.3,0.2-1.9,0.5c-2.6,1-4.6,2.7-6.1,5c-1.3,1.9-2.2,3.9-2.4,6
	v201.6c0.2,0.4,0,0.8,0.2,1.2c0.1,0.3,0.1,0.5,0.2,0.8c0.5,2.3,1.3,4.4,2.9,6c2.7,3.1,6.3,4.3,10.3,4.3h57.7h2.7h0.3h58.8h0.8
	c0.5,0,0.6-0.2,0.6-0.7v-21.5c0-1.4,0-1.4-1.5-1.4H99.5H50.1c-1.5,0-1.3,0.1-1.3-1.3V49.9c0-1.5-0.2-1.4,1.4-1.4h78.5h62.4
	c0.7,0,1.2,0.1,1.7,0.6c1.6,1.5,3.3,3,4.9,4.5c5.9,5.3,11.8,10.8,17.7,16.1c3.5,3.2,6.8,6.3,10.3,9.5c0.7,0.6,0.9,1.2,0.9,2v30.9
	v46.3c0,1.3,0,1.3,1.3,1.3h20.5c1.3,0,1.3,0,1.3-1.4c0-15.4,0-30.7,0-46.2V78.4v-7.5C249.7,70.4,249.6,70,249.1,69.6z"/>
<path class="st1" d="M225,205.2l-31.7-31.7l-20.8-20.8l-2.9-2.9l-16.3-16.3l-5.6-5.6l-20.3-20.3h5.5h25.8c0.9,0,1.1-0.2,1.1-1v-13
	l0-13c0-0.7-0.2-1-1.1-1h-19.9h-13.1h-1.8h-10.2h-3.5h-3.5c0,0,0,0,0,0h-13h-13c-0.4,0-0.6,0-0.8,0.2c-0.2,0.2-0.2,0.4-0.2,0.8v0.1
	l0,0v3.6l0,9.4v13v3.5v3.5v10.2v1.8v7.2v25.8c0,0.9,0.2,1.1,1,1.1h13h13c0.7,0,1-0.2,1-1.1v-19.9v-11.4l20.3,20.3l5.6,5.6l16.3,16.3
	l2.9,2.9l11.4,11.4l41.1,41.1c1.4,1.4,1.8,1.5,2.4,1l9.2-9.2l9.2-9.2C226.5,207.1,226.4,206.6,225,205.2z"/>
</svg>
