<?xml version="1.0" encoding="utf-8"?>
<!-- Generator: Adobe Illustrator 23.0.6, SVG Export Plug-In . SVG Version: 6.00 Build 0)  -->
<svg version="1.1" id="Layer_0_xA0_Image_1_" xmlns="http://www.w3.org/2000/svg" xmlns:xlink="http://www.w3.org/1999/xlink"
	 x="0px" y="0px" viewBox="0 0 274.8 274.8" style="enable-background:new 0 0 274.8 274.8;" xml:space="preserve">
<style type="text/css">
	.st0{fill:#333333;}
	.st1{fill:#0EBFE9;}
</style>
<path class="st0" d="M16.5,128c2.9-1.2,4.4-2.1,6-3.8l3.5-4.1c3.1-3.7,7.8-5.4,12.2-4.4l0.2,0c3,0.7,5.7,2.4,7.7,4.9l9.7,12.5
	c1.9,3.2,5,7.6,7.7,10c0.1-0.2,0.1-0.4,0.2-0.7c2.7-12.1,4.8-24.3,6.6-34.7c0.7-3.9,1.3-7.8,2-11.8c0-0.1,0-0.2,0.1-0.3
	c-23.1,0-46.2,0-69.3-0.1c-2.4,0-2.9,0.7-2.9,3c0,10.7,0,21.4,0,32.1c6.2,0,7.4,0,9.6-0.6L16.5,128z"/>
<g id="color">
	<path class="st1" d="M104,7l3.9,22.8l7.8,65.5l5,53.8c0.1,0.7,0.2,2.8,0.4,5.9c0.1,1.5,0.2,3.2,0.3,5c0.1-0.3,0.1-0.7,0.2-1
		c0.8-3.4,2.2-8.4,5.4-11.7c3-3.1,7.2-4.7,12.8-5c2.3-0.1,4.5,0,6.4,0.1c1.1,0.1,2.1,0.1,3,0.1c1.4,0,2.9,0.1,4.2,0.2
		c0.9,0.1,1.8,0.1,2.7,0.1c1.3,0,3.2,0.1,4.7-0.3c1.5-0.4,3.2-1.4,5.4-3c1.7-1.3,3.4-2.7,5-4.2l1.4-1.2c3.9-3.3,7.7-6.6,11.6-10
		c4.3-3.7,8-7,11.4-10.2c0.6-0.6,1.3-1.2,2-1.9c1.7-1.6,3.5-3.5,5.7-5.1c4.8-3.7,9.4-5.1,14-4.1c4.5,0.9,8.6,4,12.2,9.3
		c3.2,4.6,5.1,9.5,5.7,11.5c2,5.7,4.2,12.1,7.3,15.7c2.1,2.5,4.3,3.6,9.2,1.9c0.4-0.1,0.7-0.2,0.9-0.3c0.3-0.2,0.7-0.4,1.4-0.7
		c0.9-0.6,1.6-1.4,2.5-2.3c3.8-3.9,7.8-7.2,18.4-7.2c0-10.7,0-21.4,0-32.2c0-2.3-0.5-3-2.9-3c-30,0.1-60,0-90,0.1
		c-2.2,0-2.8-0.6-2.8-2.8c0.1-30,0-60,0.1-90c0-2.4-0.7-2.9-3-2.9c-13,0-25.9,0.1-38.9,0.1c-13,0-25.9,0-38.9-0.1
		c-0.5,0-0.9,0-1.2,0.1C100.8,0.6,103.5,3.3,104,7z"/>
</g>
<path class="st0" d="M266,147.2c-1.2,1.3-2.8,2.9-5.1,4.4l-0.8,0.4c-0.6,0.3-0.8,0.4-1,0.5c-0.9,0.5-1.4,0.7-2.9,1.3
	c-9.6,3.5-17.9,1.5-24.1-5.8c-4.6-5.5-7.3-13.2-9.7-19.9c-1-2.9-2.6-6-4.1-8.3c-1.9-2.8-3.4-3.7-3.8-3.7c-0.3-0.1-1.3,0.2-3.2,1.6
	c-1.5,1.1-3,2.6-4.4,4c-0.8,0.8-1.6,1.6-2.3,2.2c-3.5,3.2-7.3,6.6-11.6,10.4c-3.9,3.4-7.8,6.7-11.7,10.1l-1.3,1.1
	c-1.7,1.5-3.7,3.2-5.8,4.8c-3.5,2.6-6.6,4.2-9.8,5.1c-3.2,0.9-6.3,0.9-8.7,0.8c-1,0-2-0.1-3.1-0.2c-1.3-0.1-2.4-0.1-3.5-0.1
	c-1.2,0-2.4-0.1-3.7-0.1c-1.7-0.1-3.5-0.2-5.1-0.1c-2.6,0.1-3.5,0.7-3.8,1c-0.1,0.1-1,1.1-1.9,5.2c-0.4,1.7-0.7,3.5-1,5.2
	c-0.2,1.5-0.5,2.9-0.8,4.2c-0.2,0.7-0.5,2.5-0.9,4.7c-0.7,3.5-1.6,8.2-2.5,12.8l-0.2,1c-0.7,3.7-1.5,7.4-2.2,10.3
	c-1,4.2-2.3,9.8-7.8,9.8c-0.2,0-0.5,0-0.7,0c-6.2-0.5-6.8-6.3-7.7-14.2c-0.6-5.3-1.2-12.3-1.6-17.9c-0.7-8.2-1.2-16.5-1.6-21.9
	c-0.2-2.9-0.3-4.9-0.4-5.6l-5-53.7l-6.7-56.2l0,0.2c0,17.4,0,34.8,0.1,52.2c0,2.2-0.6,2.8-2.8,2.8c-2.4,0-4.8,0-7.2,0
	c-0.1,0.8-0.3,1.7-0.4,2.5c-0.7,3.9-1.3,7.9-2,11.8c-1.8,10.5-4,23-6.7,35.3c-1.4,6.3-4.2,10.2-8.3,11.8c-2.6,1-6.9,1.3-12.1-2.6
	c-5.3-3.9-9.9-10.9-11.8-14.1l-8.7-11.1l-3.1,3.6c-3.6,4.2-7.5,6-11.2,7.6l-0.6,0.2l-7.5,2.3c-4,1.1-6.3,1.1-13.2,1.1
	c0,10.7,0,21.4,0,32.1c0,2.3,0.5,3,2.9,3c30-0.1,60,0,90-0.1c2.2,0,2.8,0.6,2.8,2.8c-0.1,30,0,60-0.1,90c0,2.4,0.7,2.9,3,2.9
	c13,0,25.9-0.1,38.9-0.1c13,0,25.9,0,38.9,0.1c2.3,0,3-0.5,3-2.9c-0.1-30,0-60-0.1-90c0-2.2,0.6-2.8,2.8-2.8c30,0.1,60,0,90,0.1
	c2.4,0,2.9-0.7,2.9-3c0-10.7,0-21.4,0-32.1C269,144.1,268.1,145,266,147.2z"/>
</svg>
