<svg xmlns="http://www.w3.org/2000/svg" width="225.3" height="225.3" viewBox="0 0 225.3 225.3"><defs><style>.a{fill:#0ebfe9;}</style></defs><title>monitorlogo</title><path class="a" d="M13.5,105a11.6,11.6,0,0,0,4.9-3.1l2.9-3.3a10.5,10.5,0,0,1,10-3.6h.1a11.1,11.1,0,0,1,6.3,4l7.9,10.2a38.9,38.9,0,0,0,6.4,8.2v-.6c2.2-9.9,3.9-19.9,5.4-28.4l1.6-9.6v-.3H2.4c-1.9,0-2.4.6-2.4,2.4Q0,94,0,107.2c5.1,0,6.1,0,7.8-.5Z"/><path class="a" d="M85.3,5.7l3.2,18.7,6.4,53.7L99,122.2c.1.6.2,2.3.3,4.8l.3,4.1.2-.8c.6-2.8,1.8-6.9,4.4-9.6s5.9-3.8,10.5-4.1a52.1,52.1,0,0,1,5.3.1h8.1a14,14,0,0,0,3.8-.3,14.3,14.3,0,0,0,4.4-2.4c1.4-1,2.8-2.2,4.1-3.4l1.1-1,9.5-8.2,9.3-8.3,1.6-1.6a51.1,51.1,0,0,1,4.6-4.2c4-3,7.7-4.1,11.5-3.4s7,3.3,10,7.6a41.8,41.8,0,0,1,4.7,9.4c1.6,4.6,3.5,9.9,6,12.9s3.6,3,7.5,1.5l.7-.3,1.1-.6a14.1,14.1,0,0,0,2-1.9c3.1-3.2,6.4-5.9,15.1-5.9q0-13.2,0-26.4c0-1.9-.4-2.4-2.4-2.4H149.1c-1.8,0-2.3-.5-2.3-2.3.1-24.6,0-49.2.1-73.8,0-1.9-.6-2.4-2.4-2.4H79.8A6.5,6.5,0,0,1,85.3,5.7Z"/><path class="a" d="M218.1,120.7a23,23,0,0,1-4.2,3.6l-.6.4-.8.4a12,12,0,0,1-2.4,1c-7.9,2.9-14.7,1.2-19.7-4.8s-6-10.8-7.9-16.3a30.3,30.3,0,0,0-3.4-6.8c-1.6-2.3-2.8-3-3.1-3.1s-1.1.2-2.6,1.3a42.1,42.1,0,0,0-3.6,3.3l-1.9,1.8-9.5,8.5-9.6,8.3-1.1.9c-1.4,1.2-3.1,2.7-4.8,3.9a24.4,24.4,0,0,1-8,4.2,23.7,23.7,0,0,1-7.1.7H115.2c-2.2.1-2.9.5-3.2.8s-.8.9-1.5,4.3c-.3,1.4-.5,2.8-.8,4.3s-.4,2.4-.6,3.5l-.8,3.9c-.6,2.9-1.3,6.7-2.1,10.5l-.2.8c-.6,3-1.2,6.1-1.8,8.4s-1.9,8-6.4,8h-.6c-5-.4-5.6-5.1-6.3-11.7-.5-4.4-1-10.1-1.3-14.7-.5-6.7-1-13.5-1.3-18-.2-2.4-.3-4-.3-4.6l-4.1-44L78.4,33.2v.2q0,21.4,0,42.8c0,1.8-.5,2.3-2.3,2.3H70.3l-.3,2-1.6,9.7c-1.5,8.6-3.3,18.8-5.5,29-1.1,5.1-3.4,8.4-6.8,9.7s-5.7,1.1-9.9-2.1-8.1-9-9.7-11.6L29.3,106l-2.6,3a22.7,22.7,0,0,1-9.2,6.2l-.5.2-6.1,1.9c-3.3.9-5.2.9-10.8.9q0,13.2,0,26.4c0,1.9.4,2.4,2.4,2.4H76.2c1.8,0,2.3.5,2.3,2.3-.1,24.6,0,49.2-.1,73.8,0,1.9.6,2.4,2.4,2.4h63.7c1.9,0,2.4-.4,2.4-2.4-.1-24.6,0-49.2-.1-73.8,0-1.8.5-2.3,2.3-2.3h73.8c1.9,0,2.4-.6,2.4-2.4q0-13.2,0-26.4C220.6,118.2,219.8,118.9,218.1,120.7Z"/></svg>