<?xml version="1.0" encoding="utf-8"?>
<!-- Generator: Adobe Illustrator 22.0.0, SVG Export Plug-In . SVG Version: 6.00 Build 0)  -->
<svg version="1.1" xmlns="http://www.w3.org/2000/svg" xmlns:xlink="http://www.w3.org/1999/xlink" x="0px" y="0px"
	 viewBox="0 0 274.8 274.8" style="enable-background:new 0 0 274.8 274.8;" xml:space="preserve">
<style type="text/css">
	.st0{fill:#424242;}
	.st1{fill:#00CD98;}
</style>
<g id="Layer_7">
	<path class="st0" d="M186.5,250H88.3l-3.4-2.9c-19.7-17-34.1-33.4-44.1-50.2C27.3,174,22.3,150.5,26.1,127
		c3.4-21.2,13.3-37.4,22.9-53.2c1.3-2.1,2.6-4.3,3.9-6.5c0.6-1,1-1.7,1.2-2.2c-0.3-0.3-0.6-0.6-0.8-0.8c-2.3-2.3-5.8-5.7-7.4-11.4
		C43.5,44,46.6,34.4,53.7,29c3.7-2.8,8.2-4.3,12.8-4.2l70.9,0l70.9,0c4.6-0.1,9.2,1.4,12.8,4.2c7.1,5.4,10.2,15,7.8,23.9
		c-1.6,5.7-5.1,9.2-7.4,11.4c-0.3,0.3-0.6,0.5-0.8,0.8c0.2,0.5,0.6,1.2,1.2,2.2c1.3,2.2,2.6,4.3,3.9,6.5c9.6,15.7,19.5,32,22.9,53.2
		c3.8,23.5-1.2,47-14.8,69.9c-10,16.8-24.4,33.2-44.1,50.2L186.5,250z M97.3,226h80.3c36.9-32.8,52.5-64,47.5-95.2v0
		c-2.6-16.5-10.6-29.5-19.7-44.5c-1.3-2.2-2.7-4.4-4-6.7c-2.4-3.9-7.9-13.2-3-24c1.3-2.9,3.1-5.1,4.7-6.8l-65.6,0l-65.6,0
		c1.6,1.7,3.4,3.9,4.7,6.8c4.9,10.8-0.6,20.1-3,24c-1.3,2.2-2.7,4.4-4,6.6c-9.2,15-17.1,28-19.7,44.5C44.8,162,60.3,193.2,97.3,226z
		 M206,45.7L206,45.7L206,45.7z"/>
</g>
<g id="Layer_8">
	<path class="st1" d="M184.9,138l-0.7-13.7c0-0.4-0.2-0.8-0.5-1.1l-0.1-0.1c-0.3-0.4-0.8-0.6-1.3-0.6l-28.6-0.4
		c-0.5,0-1-0.2-1.3-0.6l0,0c-0.3-0.3-0.5-0.7-0.5-1.1l-0.4-30.9c0-0.4-0.2-0.9-0.5-1.2l0,0c-0.3-0.3-0.7-0.5-1.2-0.5l-12.4-0.6v0
		l-12.4,0.6c-0.5,0-0.9,0.2-1.2,0.5l0,0c-0.3,0.3-0.5,0.7-0.5,1.2l-0.6,30.9c0,0.4-0.2,0.8-0.5,1.1l0,0c-0.3,0.4-0.8,0.6-1.3,0.6
		l-28.6,0.4c-0.5,0-1,0.2-1.3,0.6l-0.1,0.1c-0.3,0.3-0.4,0.7-0.5,1.1L89.9,138h0l3.3,13.1c0.2,0.7,0.8,1.2,1.6,1.3l24.9,2.2
		c0.4,0,0.8,0.2,1.1,0.6l0.2,0.2c0.3,0.3,0.4,0.7,0.5,1.1l1.9,26.8c0.1,0.8,0.6,1.4,1.4,1.6l12.5,2.8l0,0l12.6-2.8
		c0.8-0.2,1.3-0.8,1.4-1.6l2-26.9c0-0.4,0.2-0.8,0.5-1.1l0.2-0.2c0.3-0.3,0.7-0.5,1.1-0.6l25-2.2c0.8-0.1,1.4-0.6,1.6-1.3L184.9,138
		L184.9,138L184.9,138z"/>
</g>
</svg>
