<?xml version="1.0" encoding="utf-8"?>
<!-- Generator: Adobe Illustrator 21.1.0, SVG Export Plug-In . SVG Version: 6.00 Build 0)  -->
<svg version="1.1" id="Layer_4" xmlns="http://www.w3.org/2000/svg" xmlns:xlink="http://www.w3.org/1999/xlink" x="0px" y="0px"
	 viewBox="0 0 274.8 274.8" style="enable-background:new 0 0 274.8 274.8;" xml:space="preserve">
<style type="text/css">
	.st0{fill:#424242;}
</style>
<path class="st0" d="M169.4,30.1c-10.1-3.1-20.8-4.8-32-4.9c-11.1,0.1-21.8,1.8-32,4.9C-11.3,65.8,70,193.3,137.2,249.6h0.4
	C204.8,193.3,286.1,65.8,169.4,30.1z M187.6,130.5c0,0.8-0.2,1.1-1.1,1.1c-11,0-21.9,0-32.9,0c-0.8,0-1,0.2-1,1c0,11,0,21.9,0,32.9
	c0,0.9-0.3,1.1-1.1,1.1c-4.7,0-9.5,0-14.2,0c-4.7,0-9.5,0-14.2,0c-0.8,0-1.1-0.2-1.1-1.1c0-11,0-21.9,0-32.9c0-0.8-0.2-1-1-1
	c-11,0-21.9,0-32.9,0c-0.9,0-1.1-0.3-1.1-1.1c0-4.7,0-9.5,0-14.2c0-4.7,0-9.5,0-14.2c0-0.8,0.2-1.1,1.1-1.1c11,0,21.9,0,32.9,0
	c0.8,0,1-0.2,1-1c0-11,0-21.9,0-32.9c0-0.9,0.3-1.1,1.1-1.1c4.7,0,9.5,0,14.2,0c4.7,0,9.5,0,14.2,0c0.8,0,1.1,0.2,1.1,1.1
	c0,11,0,21.9,0,32.9c0,0.8,0.2,1,1,1c11,0,21.9,0,32.9,0c0.9,0,1.1,0.3,1.1,1.1c0,4.7,0,9.5,0,14.2
	C187.6,121,187.6,125.8,187.6,130.5z"/>
</svg>
