<?xml version="1.0" encoding="utf-8"?>
<!-- Generator: Adobe Illustrator 24.0.1, SVG Export Plug-In . SVG Version: 6.00 Build 0)  -->
<svg version="1.1" id="Layer_4" xmlns="http://www.w3.org/2000/svg" xmlns:xlink="http://www.w3.org/1999/xlink" x="0px" y="0px"
	 viewBox="0 0 274.8 274.8" style="enable-background:new 0 0 274.8 274.8;" xml:space="preserve">
<style type="text/css">
	.st0{fill:#0EBFE9;}
</style>
<path id="color" class="st0" d="M176.5,6c-12.4-3.8-25.5-5.9-39.1-6c-13.6,0.1-26.7,2.2-39.1,6c-143,43.7-43.4,199.9,38.9,268.8h0.4
	C220,205.9,319.5,49.7,176.5,6z M198.9,128.9c0,1-0.2,1.3-1.3,1.3c-13.4,0-26.8,0-40.3,0c-1,0-1.2,0.2-1.2,1.2c0,13.4,0,26.8,0,40.3
	c0,1.1-0.3,1.3-1.3,1.3c-5.8,0-11.6,0-17.4,0c-5.8,0-11.6,0-17.4,0c-1,0-1.3-0.2-1.3-1.3c0-13.4,0-26.8,0-40.3c0-1-0.2-1.2-1.2-1.2
	c-13.4,0-26.8,0-40.3,0c-1.1,0-1.3-0.3-1.3-1.3c0-5.8,0-11.6,0-17.4c0-5.8,0-11.6,0-17.4c0-1,0.2-1.3,1.3-1.3c13.4,0,26.8,0,40.3,0
	c1,0,1.2-0.2,1.2-1.2c0-13.4,0-26.8,0-40.3c0-1.1,0.3-1.3,1.3-1.3c5.8,0,11.6,0,17.4,0c5.8,0,11.6,0,17.4,0c1,0,1.3,0.2,1.3,1.3
	c0,13.4,0,26.8,0,40.3c0,1,0.2,1.2,1.2,1.2c13.4,0,26.8,0,40.3,0c1.1,0,1.3,0.3,1.3,1.3c0,5.8,0,11.6,0,17.4
	C198.8,117.3,198.8,123.1,198.9,128.9z"/>
</svg>
