<?xml version="1.0" encoding="utf-8"?>
<!-- Generator: Adobe Illustrator 22.1.0, SVG Export Plug-In . SVG Version: 6.00 Build 0)  -->
<svg version="1.1" id="Layer_2" xmlns="http://www.w3.org/2000/svg" xmlns:xlink="http://www.w3.org/1999/xlink" x="0px" y="0px"
	 viewBox="0 0 274.8 274.8" style="enable-background:new 0 0 274.8 274.8;" xml:space="preserve">
<style type="text/css">
	.st0{fill:#0EBFE9;}
	.st1{fill:#00CD98;}
	.st2{fill:#424242;}
</style>
<g>
	<path class="st0" d="M247.3,39.2l-49,49c-1.5,1.5-4,1.5-5.5,0l-6.4-6.4c-1.5-1.5-1.5-4,0-5.5l49-49c1.5-1.5,4-1.5,5.5,0l6.4,6.4
		C248.8,35.3,248.8,37.7,247.3,39.2z"/>
	<path class="st1" d="M39.2,27.3l49,49c1.5,1.5,1.5,4,0,5.5l-6.4,6.4c-1.5,1.5-4,1.5-5.5,0l-49-49c-1.5-1.5-1.5-4,0-5.5l6.4-6.4
		C35.3,25.8,37.7,25.8,39.2,27.3z"/>
	<path class="st0" d="M88.2,198.3l-49,49c-1.5,1.5-4,1.5-5.5,0l-6.4-6.4c-1.5-1.5-1.5-4,0-5.5l49-49c1.5-1.5,4-1.5,5.5,0l6.4,6.4
		C89.7,194.4,89.7,196.8,88.2,198.3z"/>
	<path class="st1" d="M198.3,186.4l49,49c1.5,1.5,1.5,4,0,5.5l-6.4,6.4c-1.5,1.5-4,1.5-5.5,0l-49-49c-1.5-1.5-1.5-4,0-5.5l6.4-6.4
		C194.4,184.9,196.8,184.9,198.3,186.4z"/>
</g>
<path class="st2" d="M190.9,122.2c0-0.9-0.2-1.2-1.1-1.2c-11.7,0-23.4,0-35.1,0c-0.9,0-1.1-0.2-1.1-1.1c0-11.7,0-23.4,0-35.1
	c0-0.9-0.3-1.1-1.2-1.1c-5.1,0-10.1,0-15.2,0c-5.1,0-10.1,0-15.2,0c-0.9,0-1.2,0.2-1.2,1.1c0,11.7,0,23.4,0,35.1
	c0,0.9-0.2,1.1-1.1,1.1c-11.7,0-23.4,0-35.1,0c-0.9,0-1.1,0.3-1.1,1.2c0,5.1,0,10.1,0,15.2c0,5.1,0,10.1,0,15.2
	c0,0.9,0.2,1.2,1.1,1.2c11.7,0,23.4,0,35.1,0c0.9,0,1.1,0.2,1.1,1.1c0,11.7,0,23.4,0,35.1c0,0.9,0.3,1.1,1.2,1.1
	c5.1,0,10.1,0,15.2,0c5.1,0,10.1,0,15.2,0c0.9,0,1.2-0.2,1.2-1.1c0-11.7,0-23.4,0-35.1c0-0.9,0.2-1.1,1.1-1.1c11.7,0,23.4,0,35.1,0
	c0.9,0,1.1-0.3,1.1-1.2c0-5.1,0-10.1,0-15.2C190.9,132.3,190.9,127.2,190.9,122.2z"/>
</svg>
