<?xml version="1.0" encoding="utf-8"?>
<!-- Generator: Adobe Illustrator 23.0.6, SVG Export Plug-In . SVG Version: 6.00 Build 0)  -->
<svg version="1.1" id="Layer_2" xmlns="http://www.w3.org/2000/svg" xmlns:xlink="http://www.w3.org/1999/xlink" x="0px" y="0px"
	 viewBox="0 0 274.8 274.8" style="enable-background:new 0 0 274.8 274.8;" xml:space="preserve">
<style type="text/css">
	.st0{fill:#0EBFE9;}
	.st1{fill:#333333;}
</style>
<g id="color">
	<path class="st0" d="M273.7,15.8L212,77.5c-1.5,1.5-4,1.5-5.5,0l-9.2-9.2c-1.5-1.5-1.5-4,0-5.5L259,1.1c1.5-1.5,4-1.5,5.5,0
		l9.2,9.2C275.2,11.9,275.2,14.3,273.7,15.8z"/>
	<path class="st0" d="M15.8,1.1l61.7,61.7c1.5,1.5,1.5,4,0,5.5l-9.2,9.2c-1.5,1.5-4,1.5-5.5,0L1.1,15.8c-1.5-1.5-1.5-4,0-5.5
		l9.2-9.2C11.9-0.4,14.3-0.4,15.8,1.1z"/>
	<path class="st0" d="M77.5,212l-61.7,61.7c-1.5,1.5-4,1.5-5.5,0l-9.2-9.2c-1.5-1.5-1.5-4,0-5.5l61.7-61.7c1.5-1.5,4-1.5,5.5,0
		l9.2,9.2C79,208.1,79,210.5,77.5,212z"/>
	<path class="st0" d="M212,197.3l61.7,61.7c1.5,1.5,1.5,4,0,5.5l-9.2,9.2c-1.5,1.5-4,1.5-5.5,0L197.3,212c-1.5-1.5-1.5-4,0-5.5
		l9.2-9.2C208,195.8,210.5,195.8,212,197.3z"/>
</g>
<path class="st1" d="M203.5,118.7c0-1.1-0.3-1.4-1.4-1.4c-14.4,0-28.9,0-43.3,0.1c-1.1,0-1.3-0.3-1.3-1.3c0-14.4,0-28.9,0.1-43.3
	c0-1.1-0.3-1.4-1.4-1.4c-6.2,0-12.5,0-18.7,0c-6.2,0-12.5,0-18.7,0c-1.1,0-1.4,0.3-1.4,1.4c0,14.4,0,28.9,0.1,43.3
	c0,1.1-0.3,1.3-1.3,1.3c-14.4,0-28.9,0-43.3-0.1c-1.1,0-1.4,0.3-1.4,1.4c0,6.2,0,12.5,0,18.7c0,6.2,0,12.5,0,18.7
	c0,1.1,0.3,1.4,1.4,1.4c14.4,0,28.9,0,43.3-0.1c1.1,0,1.3,0.3,1.3,1.3c0,14.4,0,28.9-0.1,43.3c0,1.1,0.3,1.4,1.4,1.4
	c6.2,0,12.5,0,18.7,0c6.2,0,12.5,0,18.7,0c1.1,0,1.4-0.3,1.4-1.4c0-14.4,0-28.9-0.1-43.3c0-1.1,0.3-1.3,1.3-1.3
	c14.4,0,28.9,0,43.3,0.1c1.1,0,1.4-0.3,1.4-1.4c0-6.2,0-12.5,0-18.7C203.5,131.2,203.5,124.9,203.5,118.7z"/>
</svg>
