<?xml version="1.0" encoding="utf-8"?>
<!-- Generator: Adobe Illustrator 23.0.6, SVG Export Plug-In . SVG Version: 6.00 Build 0)  -->
<svg version="1.1" id="Layer_2" xmlns="http://www.w3.org/2000/svg" xmlns:xlink="http://www.w3.org/1999/xlink" x="0px" y="0px"
	 viewBox="0 0 274.8 274.8" style="enable-background:new 0 0 274.8 274.8;" xml:space="preserve">
<style type="text/css">
	.st0{fill:#333333;}
	.st1{fill:#0EBFE9;}
</style>
<g>
	<path class="st0" d="M119,176.1c0.4-2.2-1.4-4.3-3.6-4.3l-48.9,0.1h-0.8c-4.8,0-8.7-3.8-8.7-8.6c0-2,1.9-5.5,1.9-5.5L151,6
		c1.4-2.3-0.1-5.3-2.8-5.5C144.6,0.1,141,0,137.4,0C61.5,0,0,61.5,0,137.4c0,62.7,42,115.5,99.3,132c2.1,0.6,4.3-0.7,4.6-2.9
		L119,176.1z"/>
	<path class="st0" d="M170.9,8.3l-15.5,90.7c-0.4,2.2,1.3,4.3,3.6,4.3l49.1-0.1l0.8,0c4.8,0,8.7,3.8,8.7,8.6c0,1.9-0.8,3.6-1.8,5
		l0,0l-92.2,152c-1.4,2.3,0.1,5.3,2.8,5.6c3.6,0.3,7.3,0.4,11,0.4c75.9,0,137.4-61.5,137.4-137.4c0-62.7-41.9-115.5-99.3-132
		C173.4,4.8,171.2,6.1,170.9,8.3z"/>
</g>
<path id="color" class="st1" d="M169.2,128.4c0-0.5-0.1-0.7-0.7-0.7c-6.9,0-13.9,0-20.8,0c-0.5,0-0.6-0.1-0.6-0.6
	c0-6.9,0-13.9,0-20.8c0-0.5-0.2-0.7-0.7-0.7c-3,0-6,0-9,0c-3,0-6,0-9,0c-0.5,0-0.7,0.1-0.7,0.7c0,6.9,0,13.9,0,20.8
	c0,0.5-0.1,0.6-0.6,0.6c-6.9,0-13.9,0-20.8,0c-0.5,0-0.7,0.2-0.7,0.7c0,3,0,6,0,9c0,3,0,6,0,9c0,0.5,0.1,0.7,0.7,0.7
	c6.9,0,13.9,0,20.8,0c0.5,0,0.6,0.1,0.6,0.6c0,6.9,0,13.9,0,20.8c0,0.5,0.2,0.7,0.7,0.7c3,0,6,0,9,0c3,0,6,0,9,0
	c0.5,0,0.7-0.1,0.7-0.7c0-6.9,0-13.9,0-20.8c0-0.5,0.1-0.6,0.6-0.6c6.9,0,13.9,0,20.8,0c0.5,0,0.7-0.2,0.7-0.7c0-3,0-6,0-9
	C169.2,134.4,169.2,131.4,169.2,128.4z"/>
</svg>
