<?xml version="1.0" encoding="utf-8"?>
<!-- Generator: Adobe Illustrator 21.0.2, SVG Export Plug-In . SVG Version: 6.00 Build 0)  -->
<svg version="1.1" id="Layer_2" xmlns="http://www.w3.org/2000/svg" xmlns:xlink="http://www.w3.org/1999/xlink" x="0px" y="0px"
	 viewBox="0 0 274.8 274.8" style="enable-background:new 0 0 274.8 274.8;" xml:space="preserve">
<style type="text/css">
	.st0{fill:#424242;}
	.st1{fill:#00CD98;}
</style>
<g>
	<path class="st0" d="M122.9,165.6l-43.6,0.1h-0.6c-3.9,0-7.1-3.2-7.1-7c0-1.7,1.6-4.5,1.6-4.5L151,25.6c-4.5-0.5-9-0.8-13.6-0.8
		c-62.2,0-112.7,50.4-112.7,112.7c0,52.6,36,96.7,84.7,109.2L122.9,165.6z"/>
	<path class="st0" d="M165.4,28.3l-13.8,81.1l43.8,0l0.7,0c3.9,0,7.1,3.2,7.1,7.1c0,1.6-0.6,3-1.5,4.1l0,0l-78.1,128.7
		c4.5,0.6,9.1,0.8,13.8,0.8c62.2,0,112.7-50.4,112.7-112.7C250.1,84.8,214.1,40.7,165.4,28.3z"/>
</g>
<path class="st1" d="M159.9,131c0-0.4-0.1-0.5-0.5-0.5c-4.9,0-9.8,0-14.7,0c-0.4,0-0.5-0.1-0.5-0.5c0-4.9,0-9.8,0-14.7
	c0-0.4-0.1-0.5-0.5-0.5c-2.1,0-4.2,0-6.4,0c-2.1,0-4.2,0-6.4,0c-0.4,0-0.5,0.1-0.5,0.5c0,4.9,0,9.8,0,14.7c0,0.4-0.1,0.5-0.5,0.5
	c-4.9,0-9.8,0-14.7,0c-0.4,0-0.5,0.1-0.5,0.5c0,2.1,0,4.2,0,6.4c0,2.1,0,4.2,0,6.4c0,0.4,0.1,0.5,0.5,0.5c4.9,0,9.8,0,14.7,0
	c0.4,0,0.5,0.1,0.5,0.5c0,4.9,0,9.8,0,14.7c0,0.4,0.1,0.5,0.5,0.5c2.1,0,4.2,0,6.4,0c2.1,0,4.2,0,6.4,0c0.4,0,0.5-0.1,0.5-0.5
	c0-4.9,0-9.8,0-14.7c0-0.4,0.1-0.5,0.5-0.5c4.9,0,9.8,0,14.7,0c0.4,0,0.5-0.1,0.5-0.5c0-2.1,0-4.2,0-6.4
	C159.9,135.3,159.9,133.2,159.9,131z"/>
</svg>
