<?xml version="1.0" encoding="utf-8"?>
<!-- Generator: Adobe Illustrator 22.1.0, SVG Export Plug-In . SVG Version: 6.00 Build 0)  -->
<svg version="1.1" id="Layer_0_xA0_Image_1_" xmlns="http://www.w3.org/2000/svg" xmlns:xlink="http://www.w3.org/1999/xlink"
	 x="0px" y="0px" viewBox="0 0 226.7 227.5" style="enable-background:new 0 0 226.7 227.5;" xml:space="preserve">
<style type="text/css">
	.st0{fill:#0EBFE9;}
	.st1{fill:#333333;}
</style>
<path class="st0" d="M226.7,153.7c0-0.9-0.2-1.2-1.2-1.2c-12.5,0-25.1,0-37.6,0c-0.9,0-1.2-0.2-1.2-1.2c0-12.5,0-25.1,0-37.6
	c0-1-0.3-1.2-1.2-1.2c-5.4,0-10.8,0-16.2,0s-10.8,0-16.2,0c-0.9,0-1.2,0.2-1.2,1.2c0,12.5,0,25.1,0,37.6c0,0.9-0.2,1.2-1.2,1.2
	c-12.5,0-25.1,0-37.6,0c-1,0-1.2,0.3-1.2,1.2c0,5.4,0,10.8,0,16.2s0,10.8,0,16.2c0,0.9,0.2,1.2,1.2,1.2c12.5,0,25.1,0,37.6,0
	c0.9,0,1.2,0.2,1.2,1.2c0,12.5,0,25.1,0,37.6c0,1,0.3,1.2,1.2,1.2c5.4,0,10.8,0,16.2,0s10.8,0,16.2,0c0.9,0,1.2-0.2,1.2-1.2
	c0-12.5,0-25.1,0-37.6c0-0.9,0.2-1.2,1.2-1.2c12.5,0,25.1,0,37.6,0c1,0,1.2-0.3,1.2-1.2c0-5.4,0-10.8,0-16.2
	C226.7,164.5,226.7,159.1,226.7,153.7z"/>
<path class="st1" d="M226.7,88.2c0-11.3,0-22.6,0-34c0-2.5,0-5.1,0-7.6c0-0.5-0.1-0.9-0.6-1.3c-1.1-0.9-2.1-1.9-3.1-2.8
	c-4-3.6-7.9-7.3-11.9-10.9c-5.7-5.2-11.4-10.4-17.1-15.5c-4.1-3.7-8.2-7.4-12.2-11.1c-1.8-1.6-3.7-3.1-5.3-5c-55.3,0-110.7,0-166,0
	C9.6,0.1,9.2,0.2,8.6,0.5C6,1.5,4,3.2,2.4,5.5C1.1,7.4,0.2,9.4,0,11.6c0,67.8,0,135.7,0,203.5c0.2,0.4,0,0.8,0.2,1.2
	c0.1,0.3,0.1,0.5,0.2,0.8c0.5,2.3,1.3,4.4,2.9,6.1c2.7,3.1,6.4,4.3,10.4,4.3c19.4,0,38.9,0,58.3,0l0,0c0.9,0,1.8,0,2.7,0
	c0.1,0,0.2,0,0.3,0l0,0c19.8,0,39.6,0,59.4,0c0.3,0,0.5,0,0.8,0c0.5,0,0.6-0.2,0.6-0.7c0-7.2,0-14.5,0-21.7c0-1.4,0-1.4-1.5-1.4
	c-19.7,0-39.4,0-59.2,0l0,0c-16.6,0-33.2,0-49.9,0c-1.5,0-1.3,0.1-1.3-1.3c0-59,0-118,0-177c0-1.5-0.2-1.4,1.4-1.4
	c26.4,0,52.9,0,79.3,0c21,0,42,0,63,0c0.7,0,1.2,0.1,1.7,0.6c1.6,1.5,3.3,3,4.9,4.5c6,5.4,11.9,10.9,17.9,16.3
	c3.5,3.2,6.9,6.4,10.4,9.6c0.7,0.6,0.9,1.2,0.9,2c0,10.4,0,20.8,0,31.2l0,0c0,15.6,0,31.1,0,46.7c0,1.3,0,1.3,1.3,1.3
	c6.9,0,13.8,0,20.7,0c1.3,0,1.3,0,1.3-1.4C226.7,119.3,226.7,103.8,226.7,88.2L226.7,88.2z"/>
</svg>
