<?xml version="1.0" encoding="utf-8"?>
<!-- Generator: Adobe Illustrator 19.2.1, SVG Export Plug-In . SVG Version: 6.00 Build 0)  -->
<svg version="1.1" id="Layer_0_xA0_Image_1_" xmlns="http://www.w3.org/2000/svg" xmlns:xlink="http://www.w3.org/1999/xlink"
	 x="0px" y="0px" viewBox="0 0 274.8 274.8" style="enable-background:new 0 0 274.8 274.8;" xml:space="preserve">
<style type="text/css">
	.st0{fill:#23282D;}
	.st1{fill:#0EBFE9;}
</style>
<path class="st0" d="M212.6,0.2c1.9,2.2,4.2,4,6.4,6c4.9,4.5,9.8,8.9,14.7,13.4c6.9,6.2,13.7,12.5,20.6,18.7
	c4.8,4.4,9.6,8.7,14.3,13.1c1.2,1.1,2.5,2.3,3.7,3.4c0.5,0.4,0.7,0.9,0.7,1.5c0,3,0,6.1,0,9.1c0,35.3,0,70.6,0,105.8
	c0,1.6,0,1.6-1.6,1.6c-8.3,0-16.6,0-25,0c-1.6,0-1.6,0-1.6-1.5c0-34.2,0-68.4,0-102.6c0-1-0.3-1.7-1.1-2.4
	c-4.2-3.8-8.4-7.7-12.6-11.5c-7.2-6.6-14.3-13.1-21.5-19.6c-2-1.8-4-3.6-5.9-5.4c-0.6-0.6-1.2-0.7-2-0.7c-25.3,0-50.6,0-75.8,0
	c-31.8,0-63.6,0-95.4,0c-1.9,0-1.7-0.2-1.7,1.6c0,71,0,142,0,213c0,1.8-0.2,1.6,1.6,1.6c44.9,0,89.8,0,134.7,0c1.8,0,1.8,0,1.8,1.7
	c0,8.7,0,17.4,0,26.2c0,0.6-0.2,0.8-0.7,0.8c-0.3,0-0.6,0-1,0c-49.6,0-99.2,0-148.8,0c-4.8,0-9.2-1.3-12.5-5.1
	c-1.9-2.1-2.9-4.7-3.5-7.4c-0.1-0.3-0.1-0.6-0.2-0.9c-0.2-0.5,0.1-1-0.2-1.5c0-81.6,0-163.2,0-244.8C0.7,11.5,1.6,9,3.2,6.8
	c1.9-2.7,4.4-4.7,7.5-6c0.7-0.3,1.6-0.3,2.3-0.6C79.5,0.2,146.1,0.2,212.6,0.2z"/>
<path class="st1" d="M274.8,187.5c0-1.1-0.3-1.5-1.4-1.5c-14.9,0-29.7,0-44.6,0.1c-1.1,0-1.4-0.3-1.4-1.4c0-14.9,0-29.7,0.1-44.6
	c0-1.2-0.3-1.4-1.5-1.4c-6.4,0-12.8,0-19.2,0c-6.4,0-12.8,0-19.2,0c-1.1,0-1.5,0.3-1.5,1.4c0,14.9,0,29.7,0.1,44.6
	c0,1.1-0.3,1.4-1.4,1.4c-14.9,0-29.7,0-44.6-0.1c-1.2,0-1.4,0.3-1.4,1.5c0,6.4,0,12.8,0,19.2c0,6.4,0,12.8,0,19.2
	c0,1.1,0.3,1.5,1.4,1.5c14.9,0,29.7,0,44.6-0.1c1.1,0,1.4,0.3,1.4,1.4c0,14.9,0,29.7-0.1,44.6c0,1.2,0.3,1.4,1.5,1.4
	c6.4,0,12.8,0,19.2,0c6.4,0,12.8,0,19.2,0c1.1,0,1.5-0.3,1.5-1.4c0-14.9,0-29.7-0.1-44.6c0-1.1,0.3-1.4,1.4-1.4
	c14.9,0,29.7,0,44.6,0.1c1.2,0,1.4-0.3,1.4-1.5c0-6.4,0-12.8,0-19.2C274.8,200.3,274.8,193.9,274.8,187.5z"/>
</svg>
