<svg xmlns="http://www.w3.org/2000/svg" viewBox="0 0 274.8 274.8"><defs><style>.a{fill:#fff;}.b{fill:#0ebee8;}.c{fill:#cacaca;}</style></defs><title>tsflogo</title><path class="a" d="M212.64,0.24c1.95,2.17,4.24,4,6.37,6,4.87,4.51,9.82,8.92,14.73,13.38q10.3,9.34,20.59,18.7,7.18,6.53,14.34,13.09c1.24,1.13,2.46,2.29,3.74,3.37a1.79,1.79,0,0,1,.69,1.54c0,3,0,6.08,0,9.12q0,52.92,0,105.83c0,1.63,0,1.63-1.59,1.63h-25c-1.56,0-1.56,0-1.56-1.52q0-51.3,0-102.59a2.9,2.9,0,0,0-1.09-2.44c-4.23-3.78-8.37-7.66-12.56-11.49Q220.6,45,209.84,35.17c-2-1.81-4-3.59-5.91-5.44a2.65,2.65,0,0,0-2-.75Q164,29,126.07,29H30.68C28.76,29,29,28.77,29,30.62q0,106.49,0,213c0,1.79-.22,1.62,1.59,1.62H165.33c1.77,0,1.77,0,1.77,1.72q0,13.08,0,26.15c0,0.57-.16.82-0.73,0.8-0.32,0-.64,0-1,0q-74.39,0-148.79,0c-4.79,0-9.16-1.35-12.46-5.13a16.28,16.28,0,0,1-3.48-7.39C0.6,261,.52,260.73.44,260.42c-0.23-.46.09-1-0.2-1.46V14.16A18.33,18.33,0,0,1,3.19,6.78a16.35,16.35,0,0,1,7.47-6c0.75-.3,1.56-0.3,2.3-0.58H212.64Z" transform="translate(-0.24 -0.24)"/><path class="b" d="M186,275c0-.48,0-1,0-1.44q0-22.14,0-44.27c0-1.07-.23-1.41-1.36-1.4-14.92,0-29.83,0-44.75.05-1.16,0-1.46-.31-1.45-1.46q0.06-19.56,0-39.11c0-1.13.27-1.48,1.44-1.48,14.92,0,29.83,0,44.75.05,1.1,0,1.38-.28,1.37-1.37,0-14.92,0-29.83-.05-44.75,0-1.18.35-1.45,1.48-1.44q19.62,0.06,39.23,0c1.06,0,1.34.27,1.34,1.33,0,15,0,29.91-.05,44.87,0,1.13.34,1.37,1.4,1.36q22.14-.05,44.27,0c0.48,0,1,0,1.44,0v42a3.12,3.12,0,0,1-2.19.39H230.74c-2.49,0-2.35-.15-2.35,2.35q0,21.05,0,42.11A3.12,3.12,0,0,1,228,275H186Z" transform="translate(-0.24 -0.24)"/><path class="c" d="M0.24,259a1.84,1.84,0,0,1,.2,1.46H0.34l-0.1,0V259Z" transform="translate(-0.24 -0.24)"/></svg>