<?xml version="1.0" encoding="utf-8"?>
<!-- Generator: Adobe Illustrator 21.0.0, SVG Export Plug-In . SVG Version: 6.00 Build 0)  -->
<svg version="1.1" id="Layer_0_xA0_Image_1_" xmlns="http://www.w3.org/2000/svg" xmlns:xlink="http://www.w3.org/1999/xlink"
	 x="0px" y="0px" viewBox="0 0 274.8 274.8" style="enable-background:new 0 0 274.8 274.8;" xml:space="preserve">
<style type="text/css">
	.st0{fill:#0EBFE9;}
</style>
<g>
	<path class="st0" d="M38.2,129.7c2.4-1,3.6-1.7,4.9-3.1l2.9-3.3c2.6-3,6.4-4.4,10-3.6l0.1,0c2.5,0.5,4.7,2,6.3,4l7.9,10.2
		c1.6,2.6,4.1,6.2,6.4,8.2c0-0.2,0.1-0.4,0.1-0.6c2.2-9.9,3.9-19.9,5.4-28.4c0.5-3.2,1.1-6.4,1.6-9.6c0-0.1,0-0.2,0-0.3
		c-18.9,0-37.9,0-56.8-0.1c-1.9,0-2.4,0.6-2.4,2.4c0,8.8,0,17.6,0,26.4c5.1,0,6.1,0,7.8-0.5L38.2,129.7z"/>
	<path class="st0" d="M110,30.5l3.2,18.7l6.4,53.7l4.1,44.1c0.1,0.6,0.2,2.3,0.3,4.8c0.1,1.2,0.2,2.6,0.3,4.1
		c0.1-0.3,0.1-0.5,0.2-0.8c0.6-2.8,1.8-6.9,4.4-9.6c2.5-2.5,5.9-3.8,10.5-4.1c1.9-0.1,3.7,0,5.3,0.1c0.9,0,1.7,0.1,2.4,0.1
		c1.2,0,2.3,0.1,3.5,0.1c0.7,0,1.5,0.1,2.2,0.1c1.1,0,2.7,0,3.8-0.3c1.2-0.3,2.7-1.1,4.4-2.4c1.4-1,2.8-2.2,4.1-3.4l1.1-1
		c3.2-2.7,6.3-5.4,9.5-8.2c3.5-3.1,6.5-5.8,9.3-8.3c0.5-0.5,1.1-1,1.6-1.6c1.4-1.3,2.9-2.9,4.6-4.2c4-3,7.7-4.1,11.5-3.4
		c3.7,0.7,7,3.3,10,7.6c2.6,3.8,4.2,7.8,4.7,9.4c1.6,4.6,3.5,9.9,6,12.9c1.7,2,3.6,3,7.5,1.5c0.3-0.1,0.5-0.2,0.7-0.3
		c0.3-0.1,0.6-0.3,1.1-0.6c0.8-0.5,1.3-1.1,2-1.9c3.1-3.2,6.4-5.9,15.1-5.9c0-8.8,0-17.6,0-26.4c0-1.9-0.4-2.4-2.4-2.4
		c-24.6,0.1-49.2,0-73.8,0.1c-1.8,0-2.3-0.5-2.3-2.3c0.1-24.6,0-49.2,0.1-73.8c0-1.9-0.6-2.4-2.4-2.4c-10.6,0-21.2,0-31.9,0
		c-10.6,0-21.2,0-31.9,0c-0.4,0-0.7,0-1,0.1C107.4,25.2,109.6,27.5,110,30.5z"/>
	<path class="st0" d="M242.9,145.4c-1,1.1-2.3,2.4-4.2,3.6l-0.6,0.4c-0.5,0.3-0.7,0.3-0.8,0.4c-0.7,0.4-1.2,0.6-2.4,1
		c-7.9,2.9-14.7,1.2-19.8-4.8c-3.8-4.5-6-10.8-7.9-16.3c-0.8-2.4-2.1-4.9-3.4-6.8c-1.6-2.3-2.8-3-3.1-3.1c-0.2,0-1.1,0.2-2.6,1.3
		c-1.2,0.9-2.4,2.1-3.6,3.3c-0.7,0.7-1.3,1.3-1.9,1.8c-2.8,2.6-6,5.4-9.5,8.5c-3.2,2.8-6.4,5.5-9.6,8.3l-1.1,0.9
		c-1.4,1.2-3.1,2.7-4.8,3.9c-2.9,2.1-5.4,3.5-8,4.2c-2.6,0.7-5.2,0.7-7.1,0.7c-0.8,0-1.7-0.1-2.5-0.1c-1-0.1-2-0.1-2.9-0.1
		c-1,0-2-0.1-3-0.1c-1.4-0.1-2.9-0.2-4.2-0.1c-2.2,0.1-2.9,0.5-3.2,0.8c-0.1,0.1-0.8,0.9-1.5,4.3c-0.3,1.4-0.5,2.8-0.8,4.3
		c-0.2,1.2-0.4,2.4-0.6,3.5c-0.1,0.6-0.4,2-0.8,3.9c-0.6,2.9-1.3,6.7-2.1,10.5l-0.2,0.8c-0.6,3-1.2,6.1-1.8,8.4
		c-0.8,3.4-1.9,8-6.4,8c-0.2,0-0.4,0-0.6,0c-5-0.4-5.6-5.1-6.3-11.7c-0.5-4.4-1-10.1-1.3-14.7c-0.5-6.7-1-13.5-1.3-18
		c-0.2-2.4-0.3-4-0.3-4.6l-4.1-44l-5.5-46.1l0,0.2c0,14.3,0,28.5,0,42.8c0,1.8-0.5,2.3-2.3,2.3c-2,0-3.9,0-5.9,0
		c-0.1,0.7-0.2,1.4-0.3,2c-0.5,3.2-1.1,6.5-1.6,9.7c-1.5,8.6-3.3,18.8-5.5,29c-1.1,5.1-3.4,8.4-6.8,9.7c-2.2,0.8-5.7,1.1-9.9-2.1
		c-4.3-3.2-8.1-9-9.7-11.6l-7.1-9.1l-2.6,3c-2.9,3.4-6.2,4.9-9.2,6.2l-0.5,0.2l-6.1,1.9c-3.3,0.9-5.2,0.9-10.8,0.9
		c0,8.8,0,17.6,0,26.4c0,1.9,0.4,2.4,2.4,2.4c24.6-0.1,49.2,0,73.8-0.1c1.8,0,2.3,0.5,2.3,2.3c-0.1,24.6,0,49.2-0.1,73.8
		c0,1.9,0.6,2.4,2.4,2.4c10.6,0,21.2,0,31.9,0c10.6,0,21.2,0,31.9,0c1.9,0,2.4-0.4,2.4-2.4c-0.1-24.6,0-49.2-0.1-73.8
		c0-1.8,0.5-2.3,2.3-2.3c24.6,0.1,49.2,0,73.8,0.1c1.9,0,2.4-0.6,2.4-2.4c0-8.8,0-17.6,0-26.4C245.3,142.9,244.6,143.6,242.9,145.4z
		"/>
</g>
</svg>
